<svg xmlns="http://www.w3.org/2000/svg" viewBox="0 0 1280 640" role="img" aria-label="Arin Varconkar portfolio banner">
  <defs>
    <linearGradient id="bg" x1="0%" y1="0%" x2="100%" y2="100%">
      <stop offset="0%" stop-color="#0f1117" />
      <stop offset="55%" stop-color="#151a23" />
      <stop offset="100%" stop-color="#24170f" />
    </linearGradient>
    <linearGradient id="accent" x1="0%" y1="0%" x2="100%" y2="0%">
      <stop offset="0%" stop-color="#f18a4a" />
      <stop offset="50%" stop-color="#ffd29f" />
      <stop offset="100%" stop-color="#f18a4a" />
    </linearGradient>
    <radialGradient id="glowA" cx="20%" cy="18%" r="42%">
      <stop offset="0%" stop-color="#f18a4a" stop-opacity="0.34" />
      <stop offset="100%" stop-color="#f18a4a" stop-opacity="0" />
    </radialGradient>
    <radialGradient id="glowB" cx="88%" cy="20%" r="30%">
      <stop offset="0%" stop-color="#ffcf93" stop-opacity="0.18" />
      <stop offset="100%" stop-color="#ffcf93" stop-opacity="0" />
    </radialGradient>
    <filter id="soft" x="-20%" y="-20%" width="140%" height="140%">
      <feGaussianBlur stdDeviation="22" />
    </filter>
  </defs>

  <rect width="1280" height="640" rx="36" fill="url(#bg)" />
  <rect width="1280" height="640" rx="36" fill="url(#glowA)" />
  <rect width="1280" height="640" rx="36" fill="url(#glowB)" />

  <g opacity="0.15">
    <path d="M78 82h1124" stroke="#fff1e1" stroke-width="1" />
    <path d="M78 558h1124" stroke="#fff1e1" stroke-width="1" />
    <path d="M92 94v452" stroke="#fff1e1" stroke-width="1" />
    <path d="M1188 94v452" stroke="#fff1e1" stroke-width="1" />
  </g>

  <g filter="url(#soft)">
    <circle cx="1030" cy="520" r="120" fill="#f18a4a" fill-opacity="0.18" />
    <circle cx="190" cy="120" r="90" fill="#ffd6ab" fill-opacity="0.18" />
  </g>

  <rect x="118" y="112" width="194" height="42" rx="21" fill="rgba(255,255,255,0.06)" stroke="rgba(255,255,255,0.16)" />
  <text x="152" y="140" font-family="Arial, Helvetica, sans-serif" font-size="18" font-weight="700" fill="#ffcf93" letter-spacing="3">PORTFOLIO REPO</text>

  <text x="116" y="236" font-family="Georgia, 'Times New Roman', serif" font-size="74" fill="#fff7ef">Arin Varconkar</text>
  <text x="116" y="304" font-family="Arial, Helvetica, sans-serif" font-size="22" fill="#d9c8b8">Vanilla-code portfolio with live GitHub projects,</text>
  <text x="116" y="338" font-family="Arial, Helvetica, sans-serif" font-size="22" fill="#d9c8b8">editorial motion, dark mode, and a stronger</text>
  <text x="116" y="372" font-family="Arial, Helvetica, sans-serif" font-size="22" fill="#d9c8b8">digital identity built in public.</text>

  <rect x="118" y="418" width="320" height="10" rx="5" fill="url(#accent)" />

  <g transform="translate(838 164)">
    <rect width="286" height="262" rx="26" fill="rgba(255,255,255,0.05)" stroke="rgba(255,255,255,0.12)" />
    <rect x="26" y="24" width="110" height="30" rx="15" fill="rgba(255,255,255,0.08)" />
    <text x="44" y="44" font-family="Arial, Helvetica, sans-serif" font-size="14" font-weight="700" fill="#ffcf93" letter-spacing="2">LIVE FEATURES</text>

    <rect x="26" y="74" width="188" height="28" rx="14" fill="rgba(255,255,255,0.08)" />
    <text x="42" y="93" font-family="Arial, Helvetica, sans-serif" font-size="13" font-weight="700" fill="#fff7ef" letter-spacing="1">GITHUB PROJECT SYNC</text>

    <rect x="26" y="114" width="154" height="28" rx="14" fill="rgba(255,255,255,0.08)" />
    <text x="42" y="133" font-family="Arial, Helvetica, sans-serif" font-size="13" font-weight="700" fill="#fff7ef" letter-spacing="1">AUTO-DERIVED SKILLS</text>

    <rect x="26" y="154" width="138" height="28" rx="14" fill="rgba(255,255,255,0.08)" />
    <text x="42" y="173" font-family="Arial, Helvetica, sans-serif" font-size="13" font-weight="700" fill="#fff7ef" letter-spacing="1">DARK MODE TOGGLE</text>

    <rect x="26" y="194" width="170" height="28" rx="14" fill="rgba(255,255,255,0.08)" />
    <text x="42" y="213" font-family="Arial, Helvetica, sans-serif" font-size="13" font-weight="700" fill="#fff7ef" letter-spacing="1">CANVA SHOWCASE AREA</text>

    <rect x="26" y="234" width="164" height="12" rx="6" fill="#f18a4a" fill-opacity="0.7" />
    <rect x="198" y="234" width="42" height="12" rx="6" fill="#fff7ef" fill-opacity="0.2" />
    <rect x="246" y="234" width="24" height="12" rx="6" fill="#fff7ef" fill-opacity="0.1" />
  </g>

  <text x="118" y="516" font-family="Arial, Helvetica, sans-serif" font-size="18" fill="#a99684" letter-spacing="2">HTML / CSS / JAVASCRIPT / GITHUB PAGES / VERCEL</text>
</svg>
